<svg width="373" height="325" viewBox="0 0 373 325" fill="none" xmlns="http://www.w3.org/2000/svg">
<rect width="373" height="325" fill="#F5F5F5"/>
<path d="M283.027 136.079C287.82 157.451 276.593 246.946 270.38 289.023C267.683 308.257 247.956 301.935 238.43 296.369L152.564 273.661C125.717 268.764 77.0819 253.425 68.0294 245.41C58.9768 237.396 67.1419 200.64 73.3544 181.494C77.7919 172.144 86.667 146.898 86.667 120.718C86.667 94.5368 96.8733 85.3201 101.976 83.9844C91.8589 79.7099 92.4358 62.167 93.9889 53.9299C97.5389 43.4665 109.964 21.8718 152.564 19.2003C195.164 16.5288 248.858 41.2402 270.38 53.9299C282.14 62.6123 306.457 85.8544 309.652 109.364C312.847 132.873 293.234 136.969 283.027 136.079Z" fill="#CA9245"/>
<path d="M259.921 135.322C263.844 154.731 254.655 236.004 249.569 274.215C247.361 291.682 231.214 285.941 223.417 280.886L153.131 260.265C131.156 255.817 85.3519 245.102 77.9419 237.824C70.532 230.546 78.85 193.952 83.9353 176.566C87.5676 168.074 94.8322 145.148 94.8322 121.372C94.8322 97.597 103.187 89.2271 107.364 88.0141C99.0821 84.1324 99.5543 68.2012 100.826 60.7208C103.731 51.2187 118.261 31.608 153.131 29.1819C188.001 26.7558 231.953 49.197 249.569 60.7208C259.195 68.6055 279.1 89.7123 281.715 111.062C284.331 132.411 268.276 136.131 259.921 135.322Z" fill="#DBBF98"/>
</svg>
