<svg width="310" height="274" viewBox="0 0 310 274" fill="none" xmlns="http://www.w3.org/2000/svg">
<rect width="310" height="274" fill="#F5F5F5"/>
<g id="Frame 1">
<path id="Vector 2" d="M192.5 42.6571C158.9 27.0571 137.5 29.9852 129 30.6571C115.8 31.7005 104.75 37.1571 96.5 48.1571C92 54.1571 92.5 63.6571 79 70.6571C39 82.2571 34 97.1571 34 112.157C37 142.657 50 137.157 51.5 156.657C52.4615 169.157 46.7632 173.657 51.5 193.657C55.1 208.857 76.3333 219.657 86.5 223.157C95 227.657 103.5 229.324 103.5 230.157C124.5 241.157 145.167 243.657 151 244.157C184.2 245.357 205 238.657 218.5 229.157C234.5 214.657 227 215.157 238 196.657L248.5 184.157C266.9 166.957 274.167 146.99 275.5 139.157C278.5 121.532 267 100.657 263 90.6571C247.4 57.8571 223.5 48.6571 213.5 48.1571C203.9 46.9571 195.5 43.9904 192.5 42.6571Z" fill="#E6E1D6"/>
<circle id="Ellipse 2" cx="153.5" cy="136.157" r="52" fill="#F7D376"/>
<circle id="Ellipse 3" cx="149.5" cy="129.5" r="31.5" fill="#FDE8B0"/>
<ellipse id="Ellipse 4" cx="6.5" cy="4.5" rx="6.5" ry="4.5" transform="matrix(0.946908 -0.321505 -0.321505 -0.946908 136.894 120.702)" fill="#FFFCF4"/>
<path id="Vector 3" d="M233.576 105.355C238.922 117.533 237.288 126.147 233.576 132.83C232.132 135.429 229.12 136.543 225.036 135.429C220.581 133.35 217.611 123.919 216.497 119.464C200.532 85.3047 159.445 83.8195 146.698 87.1612C103.036 100.825 100.783 134.934 105.115 150.281C109.867 173.747 118.976 184.069 122.936 186.297C132.441 191.346 140.015 196.569 142.613 198.549C150.93 212.51 136.921 216 128.876 216C106.897 214.515 88.7787 205.975 82.4671 201.891C62.5668 192.089 63.7796 175.529 66.8736 168.474C69.5467 154.514 67.9874 149.043 66.8736 148.053C67.4676 140.924 59.2006 130.726 54.9928 126.518C59.8194 132.83 66.2795 141.37 53.5077 125.033C40.7359 108.696 53.1364 96.4435 60.9332 92.3593C66.2795 88.4978 81.477 83.572 88.4075 81.5918C96.724 74.76 103.011 63.8934 105.115 59.3141C114.322 40.898 136.673 40.7495 146.698 42.9772C177.29 50.7001 195.829 61.0468 201.275 65.2548C218.502 74.1659 229.987 95.7009 233.576 105.355Z" fill="#F9F4E9"/>
<path id="Vector 4" d="M96.3393 115.415C96.5524 106.097 104.065 97.2378 107.795 93.973L114.188 89.4728C118.273 87.1787 128.894 82.8021 138.698 83.6491C148.502 84.4962 149.532 79.9432 148.821 77.5607C145.624 62.9486 128.663 63.0015 120.582 64.8545C111.631 67.3957 105.486 75.9725 103.532 79.9432C100.122 89.0493 90.7447 94.3259 86.4822 95.826C83.4985 96.4613 79.9109 98.3849 78.49 99.2672C75.0268 102.179 69.6453 110.703 75.826 121.503C82.0066 132.303 89.9455 132.709 93.1424 131.562C96.9786 129.868 96.8721 120.091 96.3393 115.415Z" fill="white"/>
</g>
</svg>
