<svg width="1969" height="2008" viewBox="0 0 1969 2008" fill="none" xmlns="http://www.w3.org/2000/svg">
<rect width="1969" height="2008" fill="#F5F5F5"/>
<rect x="746.554" y="1290.19" width="92" height="138" transform="rotate(-127.177 746.554 1290.19)" fill="#989898"/>
<circle cx="1204.71" cy="869.927" r="482" transform="rotate(-127.177 1204.71 869.927)" fill="#636363" stroke="#989898" stroke-width="38"/>
<circle cx="1204.71" cy="869.927" r="350" transform="rotate(-127.177 1204.71 869.927)" fill="#848484"/>
<rect x="474.466" y="1535.45" width="149" height="365" rx="21" transform="rotate(-127.177 474.466 1535.45)" fill="#4D4D4D"/>
<path fill-rule="evenodd" clip-rule="evenodd" d="M245.968 1629.68C266.994 1657.4 306.512 1662.83 334.235 1641.81L524.663 1497.38C552.385 1476.36 557.815 1436.84 536.789 1409.12L522.891 1390.79C501.865 1363.07 462.347 1357.64 434.624 1378.67L244.196 1523.09C216.474 1544.11 211.044 1583.63 232.07 1611.36L245.968 1629.68ZM290.012 1581.84C299.524 1594.39 317.401 1596.84 329.942 1587.33L396.871 1536.57C409.412 1527.06 411.868 1509.18 402.357 1496.64C392.845 1484.1 374.968 1481.64 362.427 1491.15L295.498 1541.91C282.957 1551.43 280.501 1569.3 290.012 1581.84Z" fill="#4D4D4D"/>
</svg>
